<svg xmlns="http://www.w3.org/2000/svg" version="1.1" xmlns:xlink="http://www.w3.org/1999/xlink" xmlns:svgjs="http://svgjs.dev/svgjs" width="2000" height="1247" viewBox="0 0 2000 1247"><g transform="matrix(1,0,0,1,-1.2121212121212466,0.504858299595071)"><svg viewBox="0 0 396 247" data-background-color="#fcfaf7" preserveAspectRatio="xMidYMid meet" height="1247" width="2000" xmlns="http://www.w3.org/2000/svg" xmlns:xlink="http://www.w3.org/1999/xlink"><g id="tight-bounds" transform="matrix(1,0,0,1,0.2400000000000091,-0.09999999999999432)"><svg viewBox="0 0 395.52 247.2" height="247.2" width="395.52"><g><svg></svg></g><g><svg viewBox="0 0 395.52 247.2" height="247.2" width="395.52"><g transform="matrix(1,0,0,1,75.54432,64.21088271094544)"><svg viewBox="0 0 244.43135999999998 118.7782345781091" height="118.7782345781091" width="244.43135999999998"><g><svg viewBox="0 0 244.43135999999998 118.7782345781091" height="118.7782345781091" width="244.43135999999998"><g><svg viewBox="0 0 244.43135999999998 118.7782345781091" height="118.7782345781091" width="244.43135999999998"><g><svg viewBox="0 0 244.43135999999998 118.7782345781091" height="118.7782345781091" width="244.43135999999998"><g id="textblocktransform"><svg viewBox="0 0 244.43135999999998 118.7782345781091" height="118.7782345781091" width="244.43135999999998" id="textblock"><g><svg viewBox="0 0 244.43135999999998 118.7782345781091" height="118.7782345781091" width="244.43135999999998"><g transform="matrix(1,0,0,1,0,0)"><svg width="244.43135999999998" viewBox="2.34 -35.01 72.05 35.01" height="118.7782345781091" data-palette-color="#edc317"><path d="M37.33-10.3L37.33-10.3Q37.33-8.42 36.85-6.92 36.38-5.42 35.6-4.27 34.81-3.13 33.76-2.32 32.71-1.51 31.59-1 30.47-0.49 29.31-0.24 28.15 0 27.12 0L27.12 0 2.64 0 2.64-6.35 27.12-6.35Q28.96-6.35 29.97-7.42 30.98-8.5 30.98-10.3L30.98-10.3Q30.98-11.18 30.71-11.91 30.44-12.65 29.94-13.18 29.44-13.72 28.72-14.01 28-14.31 27.12-14.31L27.12-14.31 12.52-14.31Q10.99-14.31 9.2-14.86 7.42-15.41 5.9-16.63 4.37-17.85 3.36-19.82 2.34-21.8 2.34-24.66L2.34-24.66Q2.34-27.51 3.36-29.48 4.37-31.45 5.9-32.68 7.42-33.91 9.2-34.46 10.99-35.01 12.52-35.01L12.52-35.01 34.13-35.01 34.13-28.66 12.52-28.66Q10.72-28.66 9.7-27.56 8.69-26.46 8.69-24.66L8.69-24.66Q8.69-22.83 9.7-21.77 10.72-20.7 12.52-20.7L12.52-20.7 27.12-20.7 27.17-20.7Q28.2-20.68 29.35-20.42 30.49-20.17 31.63-19.63 32.76-19.09 33.79-18.27 34.81-17.46 35.61-16.31 36.4-15.16 36.87-13.67 37.33-12.18 37.33-10.3ZM71.56-20.7L71.56-14.31 51.49-14.31 51.49-20.7 71.56-20.7ZM74.39-35.01L74.39-28.66 48.95-28.66 48.95 0 42.6 0 42.6-31.81Q42.6-32.47 42.84-33.06 43.09-33.64 43.52-34.08 43.94-34.52 44.53-34.77 45.11-35.01 45.8-35.01L45.8-35.01 74.39-35.01Z" opacity="1" transform="matrix(1,0,0,1,0,0)" fill="#F2D544" class="wordmark-text-0" data-fill-palette-color="primary" id="text-0"></path></svg></g></svg></g></svg></g></svg></g></svg></g></svg></g></svg></g><path d="M238.429 58.211L238.429 10.09 11.408 10.09 11.408 237.11 238.429 237.11 238.429 188.989 227.717 188.989 227.717 226.399 22.12 226.399 22.12 20.801 227.717 20.801 227.717 58.211Z" fill="#F2D544" stroke="transparent" data-fill-palette-color="tertiary"></path></svg></g><defs></defs></svg><rect width="395.52" height="247.2" fill="none" stroke="none" visibility="hidden"></rect></g></svg></g></svg>